<?xml version="1.0" encoding="UTF-8" standalone="no"?>
<svg
   xmlns:dc="http://purl.org/dc/elements/1.1/"
   xmlns:cc="http://creativecommons.org/ns#"
   xmlns:rdf="http://www.w3.org/1999/02/22-rdf-syntax-ns#"
   xmlns:svg="http://www.w3.org/2000/svg"
   xmlns="http://www.w3.org/2000/svg"
   viewBox="0 0 256 256"
   height="256"
   width="256"
   xml:space="preserve"
   id="svg2"
   version="1.1"><metadata
     id="metadata8"><rdf:RDF><cc:Work
         rdf:about=""><dc:format>image/svg+xml</dc:format><dc:type
           rdf:resource="http://purl.org/dc/dcmitype/StillImage" /></cc:Work></rdf:RDF></metadata><defs
     id="defs6"><clipPath
       id="clipPath18"
       clipPathUnits="userSpaceOnUse"><path
         id="path16"
         d="M 0,192 H 192 V 0 H 0 Z" /></clipPath><clipPath
       id="clipPath30"
       clipPathUnits="userSpaceOnUse"><path
         id="path28"
         d="m 32,172 c -6.6,0 -12,-5.4 -12,-12 v 0 -128 c 0,-6.6 5.4,-12 12,-12 v 0 h 128 c 6.6,0 12,5.4 12,12 v 0 128 c 0,6.6 -5.4,12 -12,12 v 0 z" /></clipPath><clipPath
       id="clipPath50"
       clipPathUnits="userSpaceOnUse"><path
         id="path48"
         d="M 0,192 H 192 V 0 H 0 Z" /></clipPath><clipPath
       id="clipPath66"
       clipPathUnits="userSpaceOnUse"><path
         id="path64"
         d="m 118,74 h 32 V 57.5 h -32 z" /></clipPath><clipPath
       id="clipPath82"
       clipPathUnits="userSpaceOnUse"><path
         id="path80"
         d="m 118,58.5 h 32 V 42 h -32 z" /></clipPath><clipPath
       id="clipPath106"
       clipPathUnits="userSpaceOnUse"><path
         id="path104"
         d="M 42,74 H 74 V 57.5 H 42 Z" /></clipPath><clipPath
       id="clipPath122"
       clipPathUnits="userSpaceOnUse"><path
         id="path120"
         d="M 42,58.5 H 74 V 42 H 42 Z" /></clipPath><clipPath
       id="clipPath146"
       clipPathUnits="userSpaceOnUse"><path
         id="path144"
         d="m 118,150 h 32 v -16.5 h -32 z" /></clipPath><clipPath
       id="clipPath162"
       clipPathUnits="userSpaceOnUse"><path
         id="path160"
         d="m 118,134.5 h 32 V 118 h -32 z" /></clipPath><clipPath
       id="clipPath186"
       clipPathUnits="userSpaceOnUse"><path
         id="path184"
         d="M 42,150 H 74 V 133.5 H 42 Z" /></clipPath><clipPath
       id="clipPath202"
       clipPathUnits="userSpaceOnUse"><path
         id="path200"
         d="M 42,134.5 H 74 V 118 H 42 Z" /></clipPath><clipPath
       id="clipPath218"
       clipPathUnits="userSpaceOnUse"><path
         id="path216"
         d="M 20,172 H 172 V 159 H 20 Z" /></clipPath><clipPath
       id="clipPath234"
       clipPathUnits="userSpaceOnUse"><path
         id="path232"
         d="M 20,33 H 172 V 20 H 20 Z" /></clipPath><clipPath
       id="clipPath250"
       clipPathUnits="userSpaceOnUse"><path
         id="path248"
         d="m 32,172 c -6.6,0 -12,-5.4 -12,-12 v 0 -128 c 0,-6.6 5.4,-12 12,-12 v 0 h 128 c 6.6,0 12,5.4 12,12 v 0 128 c 0,6.6 -5.4,12 -12,12 v 0 z" /></clipPath><linearGradient
       id="linearGradient266"
       spreadMethod="pad"
       gradientTransform="matrix(0,-152,-152,0,96,172)"
       gradientUnits="userSpaceOnUse"
       y2="0"
       x2="1"
       y1="0"
       x1="0"><stop
         id="stop260"
         offset="0"
         style="stop-opacity:0.09999237;stop-color:#ffffff" /><stop
         id="stop262"
         offset="0.57776751"
         style="stop-opacity:0;stop-color:#ffffff" /><stop
         id="stop264"
         offset="1"
         style="stop-opacity:0;stop-color:#ffffff" /></linearGradient><mask
       id="mask268"
       height="1"
       width="1"
       y="0"
       x="0"
       maskUnits="userSpaceOnUse"><g
         id="g278"><g
           id="g276"><g
             id="g274"><g
               id="g272"><path
                 id="path270"
                 style="fill:url(#linearGradient266);stroke:none"
                 d="M -32768,32767 H 32767 V -32768 H -32768 Z" /></g></g></g></g></mask><linearGradient
       id="linearGradient290"
       spreadMethod="pad"
       gradientTransform="matrix(0,-152,-152,0,96,172)"
       gradientUnits="userSpaceOnUse"
       y2="0"
       x2="1"
       y1="0"
       x1="0"><stop
         id="stop284"
         offset="0"
         style="stop-opacity:1;stop-color:#ffffff" /><stop
         id="stop286"
         offset="0.57776751"
         style="stop-opacity:1;stop-color:#ffffff" /><stop
         id="stop288"
         offset="1"
         style="stop-opacity:1;stop-color:#ffffff" /></linearGradient></defs><g
     transform="matrix(1.3333333,0,0,-1.3333333,0,256)"
     id="g10"><g
       id="g12"><g
         clip-path="url(#clipPath18)"
         id="g14"><g
           transform="translate(160,20)"
           id="g20"><path
             id="path22"
             style="fill:#2196f3;fill-opacity:1;fill-rule:nonzero;stroke:none"
             d="m 0,0 h -128 c -6.6,0 -12,5.4 -12,12 v 128 c 0,6.6 5.4,12 12,12 H 0 c 6.6,0 12,-5.4 12,-12 V 12 C 12,5.4 6.6,0 0,0" /></g></g></g><g
       id="g24"><g
         clip-path="url(#clipPath30)"
         id="g26"><g
           transform="translate(53.8333,129.8333)"
           id="g32"><path
             id="path34"
             style="fill:none;stroke:#bbdefb;stroke-width:12;stroke-linecap:butt;stroke-linejoin:miter;stroke-miterlimit:10;stroke-dasharray:none;stroke-opacity:1"
             d="M 0,0 74.877,74.877" /></g><g
           transform="translate(138.115,62.115)"
           id="g36"><path
             id="path38"
             style="fill:none;stroke:#bbdefb;stroke-width:12;stroke-linecap:butt;stroke-linejoin:miter;stroke-miterlimit:10;stroke-dasharray:none;stroke-opacity:1"
             d="M 0,0 -50.115,-50.115" /></g><g
           transform="translate(58,58)"
           id="g40"><path
             id="path42"
             style="fill:none;stroke:#bbdefb;stroke-width:12;stroke-linecap:butt;stroke-linejoin:miter;stroke-miterlimit:10;stroke-dasharray:none;stroke-opacity:1"
             d="M 0,0 -70.711,70.711 0,0 76,76 146.711,5.289" /></g></g></g><g
       id="g44"><g
         clip-path="url(#clipPath50)"
         id="g46"><g
           transform="translate(150,58)"
           id="g52"><path
             id="path54"
             style="fill:#bbdefb;fill-opacity:1;fill-rule:nonzero;stroke:none"
             d="m 0,0 c 0,-8.837 -7.163,-16 -16,-16 -8.837,0 -16,7.163 -16,16 0,8.837 7.163,16 16,16 C -7.163,16 0,8.837 0,0" /></g><g
           transform="translate(140,58)"
           id="g56"><path
             id="path58"
             style="fill:#42a5f5;fill-opacity:1;fill-rule:nonzero;stroke:none"
             d="m 0,0 c 0,-3.314 -2.686,-6 -6,-6 -3.314,0 -6,2.686 -6,6 0,3.314 2.686,6 6,6 3.314,0 6,-2.686 6,-6" /></g><g
           id="g60"><g
             id="g62" /><g
             id="g74"><g
               style="opacity:0.19999701"
               id="g72"
               clip-path="url(#clipPath66)"><g
                 id="g70"
                 transform="translate(134,73)"><path
                   id="path68"
                   style="fill:#ffffff;fill-opacity:1;fill-rule:nonzero;stroke:none"
                   d="M 0,0 C 8.668,0 15.708,-6.897 15.975,-15.5 15.98,-15.332 16,-15.169 16,-15 16,-6.163 8.837,1 0,1 c -8.837,0 -16,-7.163 -16,-16 0,-0.169 0.02,-0.332 0.025,-0.5 C -15.708,-6.897 -8.668,0 0,0" /></g></g></g></g><g
           id="g76"><g
             id="g78" /><g
             id="g90"><g
               style="opacity:0.19999701"
               id="g88"
               clip-path="url(#clipPath82)"><g
                 id="g86"
                 transform="translate(134,43)"><path
                   id="path84"
                   style="fill:#1a237e;fill-opacity:1;fill-rule:nonzero;stroke:none"
                   d="M 0,0 C -8.668,0 -15.708,6.897 -15.975,15.5 -15.98,15.332 -16,15.169 -16,15 -16,6.163 -8.837,-1 0,-1 c 8.837,0 16,7.163 16,16 0,0.169 -0.02,0.332 -0.025,0.5 C 15.708,6.897 8.668,0 0,0" /></g></g></g></g><g
           transform="translate(74,58)"
           id="g92"><path
             id="path94"
             style="fill:#bbdefb;fill-opacity:1;fill-rule:nonzero;stroke:none"
             d="m 0,0 c 0,-8.837 -7.163,-16 -16,-16 -8.837,0 -16,7.163 -16,16 0,8.837 7.163,16 16,16 C -7.163,16 0,8.837 0,0" /></g><g
           transform="translate(64,58)"
           id="g96"><path
             id="path98"
             style="fill:#42a5f5;fill-opacity:1;fill-rule:nonzero;stroke:none"
             d="m 0,0 c 0,-3.314 -2.686,-6 -6,-6 -3.314,0 -6,2.686 -6,6 0,3.314 2.686,6 6,6 3.314,0 6,-2.686 6,-6" /></g><g
           id="g100"><g
             id="g102" /><g
             id="g114"><g
               style="opacity:0.19999701"
               id="g112"
               clip-path="url(#clipPath106)"><g
                 id="g110"
                 transform="translate(58,73)"><path
                   id="path108"
                   style="fill:#ffffff;fill-opacity:1;fill-rule:nonzero;stroke:none"
                   d="M 0,0 C 8.668,0 15.708,-6.897 15.975,-15.5 15.98,-15.332 16,-15.169 16,-15 16,-6.163 8.837,1 0,1 c -8.837,0 -16,-7.163 -16,-16 0,-0.169 0.02,-0.332 0.025,-0.5 C -15.708,-6.897 -8.668,0 0,0" /></g></g></g></g><g
           id="g116"><g
             id="g118" /><g
             id="g130"><g
               style="opacity:0.19999701"
               id="g128"
               clip-path="url(#clipPath122)"><g
                 id="g126"
                 transform="translate(58,43)"><path
                   id="path124"
                   style="fill:#1a237e;fill-opacity:1;fill-rule:nonzero;stroke:none"
                   d="M 0,0 C -8.668,0 -15.708,6.897 -15.975,15.5 -15.98,15.332 -16,15.169 -16,15 -16,6.163 -8.837,-1 0,-1 c 8.837,0 16,7.163 16,16 0,0.169 -0.02,0.332 -0.025,0.5 C 15.708,6.897 8.668,0 0,0" /></g></g></g></g><g
           transform="translate(150,134)"
           id="g132"><path
             id="path134"
             style="fill:#bbdefb;fill-opacity:1;fill-rule:nonzero;stroke:none"
             d="m 0,0 c 0,-8.837 -7.163,-16 -16,-16 -8.837,0 -16,7.163 -16,16 0,8.837 7.163,16 16,16 C -7.163,16 0,8.837 0,0" /></g><g
           transform="translate(140,134)"
           id="g136"><path
             id="path138"
             style="fill:#42a5f5;fill-opacity:1;fill-rule:nonzero;stroke:none"
             d="m 0,0 c 0,-3.314 -2.686,-6 -6,-6 -3.314,0 -6,2.686 -6,6 0,3.314 2.686,6 6,6 3.314,0 6,-2.686 6,-6" /></g><g
           id="g140"><g
             id="g142" /><g
             id="g154"><g
               style="opacity:0.19999701"
               id="g152"
               clip-path="url(#clipPath146)"><g
                 id="g150"
                 transform="translate(134,149)"><path
                   id="path148"
                   style="fill:#ffffff;fill-opacity:1;fill-rule:nonzero;stroke:none"
                   d="M 0,0 C 8.668,0 15.708,-6.897 15.975,-15.5 15.98,-15.332 16,-15.169 16,-15 16,-6.163 8.837,1 0,1 c -8.837,0 -16,-7.163 -16,-16 0,-0.169 0.02,-0.332 0.025,-0.5 C -15.708,-6.897 -8.668,0 0,0" /></g></g></g></g><g
           id="g156"><g
             id="g158" /><g
             id="g170"><g
               style="opacity:0.19999701"
               id="g168"
               clip-path="url(#clipPath162)"><g
                 id="g166"
                 transform="translate(134,119)"><path
                   id="path164"
                   style="fill:#1a237e;fill-opacity:1;fill-rule:nonzero;stroke:none"
                   d="M 0,0 C -8.668,0 -15.708,6.897 -15.975,15.5 -15.98,15.332 -16,15.169 -16,15 -16,6.163 -8.837,-1 0,-1 c 8.837,0 16,7.163 16,16 0,0.169 -0.02,0.332 -0.025,0.5 C 15.708,6.897 8.668,0 0,0" /></g></g></g></g><g
           transform="translate(74,134)"
           id="g172"><path
             id="path174"
             style="fill:#bbdefb;fill-opacity:1;fill-rule:nonzero;stroke:none"
             d="m 0,0 c 0,-8.837 -7.163,-16 -16,-16 -8.837,0 -16,7.163 -16,16 0,8.837 7.163,16 16,16 C -7.163,16 0,8.837 0,0" /></g><g
           transform="translate(64,134)"
           id="g176"><path
             id="path178"
             style="fill:#42a5f5;fill-opacity:1;fill-rule:nonzero;stroke:none"
             d="m 0,0 c 0,-3.314 -2.686,-6 -6,-6 -3.314,0 -6,2.686 -6,6 0,3.314 2.686,6 6,6 3.314,0 6,-2.686 6,-6" /></g><g
           id="g180"><g
             id="g182" /><g
             id="g194"><g
               style="opacity:0.19999701"
               id="g192"
               clip-path="url(#clipPath186)"><g
                 id="g190"
                 transform="translate(58,149)"><path
                   id="path188"
                   style="fill:#ffffff;fill-opacity:1;fill-rule:nonzero;stroke:none"
                   d="M 0,0 C 8.668,0 15.708,-6.897 15.975,-15.5 15.98,-15.332 16,-15.169 16,-15 16,-6.163 8.837,1 0,1 c -8.837,0 -16,-7.163 -16,-16 0,-0.169 0.02,-0.332 0.025,-0.5 C -15.708,-6.897 -8.668,0 0,0" /></g></g></g></g><g
           id="g196"><g
             id="g198" /><g
             id="g210"><g
               style="opacity:0.19999701"
               id="g208"
               clip-path="url(#clipPath202)"><g
                 id="g206"
                 transform="translate(58,119)"><path
                   id="path204"
                   style="fill:#1a237e;fill-opacity:1;fill-rule:nonzero;stroke:none"
                   d="M 0,0 C -8.668,0 -15.708,6.897 -15.975,15.5 -15.98,15.332 -16,15.169 -16,15 -16,6.163 -8.837,-1 0,-1 c 8.837,0 16,7.163 16,16 0,0.169 -0.02,0.332 -0.025,0.5 C 15.708,6.897 8.668,0 0,0" /></g></g></g></g><g
           id="g212"><g
             id="g214" /><g
             id="g226"><g
               style="opacity:0.19999701"
               id="g224"
               clip-path="url(#clipPath218)"><g
                 id="g222"
                 transform="translate(160,172)"><path
                   id="path220"
                   style="fill:#ffffff;fill-opacity:1;fill-rule:nonzero;stroke:none"
                   d="m 0,0 h -128 c -6.6,0 -12,-5.4 -12,-12 v -1 c 0,6.6 5.4,12 12,12 H 0 c 6.6,0 12,-5.4 12,-12 v 1 C 12,-5.4 6.6,0 0,0" /></g></g></g></g><g
           id="g228"><g
             id="g230" /><g
             id="g242"><g
               style="opacity:0.19999701"
               id="g240"
               clip-path="url(#clipPath234)"><g
                 id="g238"
                 transform="translate(160,21)"><path
                   id="path236"
                   style="fill:#1a237e;fill-opacity:1;fill-rule:nonzero;stroke:none"
                   d="m 0,0 h -128 c -6.6,0 -12,5.4 -12,12 v -1 c 0,-6.6 5.4,-12 12,-12 H 0 c 6.6,0 12,5.4 12,12 v 1 C 12,5.4 6.6,0 0,0" /></g></g></g></g></g></g><g
       id="g244"><g
         clip-path="url(#clipPath250)"
         id="g246"><g
           id="g252"><g
             id="g254" /><g
             mask="url(#mask268)"
             id="g280"><g
               id="g282"><path
                 id="path292"
                 style="fill:url(#linearGradient290);stroke:none"
                 d="m 32,172 c -6.6,0 -12,-5.4 -12,-12 v 0 -128 c 0,-6.6 5.4,-12 12,-12 v 0 h 128 c 6.6,0 12,5.4 12,12 v 0 128 c 0,6.6 -5.4,12 -12,12 v 0 z" /></g></g></g></g></g></g></svg>
